# xmcd
# 
# Track frame offsets:
#     150
#     16234
#     33769
#     50394
#     66657
#     83991
#     101787
#     121616
#     136035
#     148108
#     161501
#     180424
#     191962
#     206922
# 
# Disc length: 3008
# 
# Revision: 4
# Processed by: cddbd v1.5.2PL0 Copyright (c) Steve Scherf et al.
# Submitted via: BonkEnc v1.0
# 
DISCID=c30bbe0e
DTITLE=KENNY ROGERS - GREATEST HITS 
DYEAR=1980
DGENRE=COUNTRY
TTITLE0=SO IN LOVE WITH YOU
TTITLE1=LADY
TTITLE2=DON'T FALL IN LOVE WITH A DREAMER
TTITLE3=RUBY, DON'T TAKE YOUR LOVE TO TOWN
TTITLE4=SHE BELIEVES IN ME
TTITLE5=COWARD OF THE COUNTY
TTITLE6=LUCILLE
TTITLE7=YOU DECORATED MY LIFE
TTITLE8=REUBEN JAMES
TTITLE9=LOVE THE WORLD AWAY
TTITLE10=EVERY TIME TWO FOOLS COLLIDE
TTITLE11=LONG ARM OF THE LAW
TTITLE12=SHARE YOUR LOVE WITH ME
TTITLE13=SO IN LOVE WITH YOU
EXTD=
EXTT0=
EXTT1=
EXTT2=
EXTT3=
EXTT4=
EXTT5=
EXTT6=
EXTT7=
EXTT8=
EXTT9=
EXTT10=
EXTT11=
EXTT12=
EXTT13=
PLAYORDER=
